<svg xmlns="http://www.w3.org/2000/svg" class="icon icon-cardmarket" viewBox="0 0 32 32" width="32"  height="32" ><g fill="#e27e36" stroke-width="0px" id="icon-cardmarket">
<title>cardmarket</title>
<path d="M12.846 5.928c-0.594 0.213-1.128 0.442-1.189 0.488-0.152 0.168 1.509 2.834 1.722 2.773 0.198-0.076 0.259 0.198 0.061 0.29-0.183 0.076 5.12 9.173 5.379 9.234 0.107 0.030 0.183 0.137 0.137 0.259-0.046 0.107 0.091 0.472 0.305 0.823l0.396 0.61-1.006 0.564c-0.549 0.305-0.96 0.579-0.93 0.61 0.122 0.137 1.981-0.67 2.118-0.899 0.076-0.168 0.076-0.366-0.030-0.564-0.091-0.168-0.32-0.777-0.518-1.341s-0.625-1.783-0.975-2.697c-0.335-0.93-0.93-2.575-1.326-3.657-0.67-1.829-1.402-3.825-1.95-5.349-0.366-1.006-0.701-1.585-0.914-1.57-0.091 0.015-0.67 0.198-1.28 0.427z"></path>
<path d="M16.152 5.745c-0.625 0.122-1.158 0.244-1.189 0.259-0.091 0.107 0.96 2.773 1.158 2.941 0.122 0.091 0.168 0.244 0.122 0.32-0.076 0.137 2.88 8.549 3.459 9.859 0.122 0.244 0.305 0.777 0.442 1.173l0.229 0.701-1.463 0.488c-1.493 0.503-2.057 0.747-1.752 0.762 0.229 0 2.804-0.442 3.154-0.549 0.427-0.137 0.533 0.625-1.341-9.935-0.549-3.048-0.99-5.592-0.99-5.669 0-0.168-0.442-0.61-0.579-0.594-0.061 0.015-0.625 0.122-1.25 0.244z"></path>
<path d="M9.371 7.070c-0.747 0.442-2.773 1.615-4.465 2.606-1.707 0.99-3.139 1.89-3.185 1.996s1.432 2.834 3.276 6.034c4.206 7.314 4.495 7.802 4.815 7.863 0.137 0.030 1.234-0.518 2.423-1.204 1.189-0.701 2.484-1.432 2.865-1.646 2.56-1.432 3.84-2.225 3.916-2.423 0.046-0.137-0.046-0.442-0.183-0.701-0.152-0.259-1.326-2.286-2.606-4.51s-2.85-4.968-3.505-6.095c-1.234-2.149-1.585-2.651-1.829-2.697-0.091 0-0.762 0.35-1.524 0.777z"></path>
<path d="M18.286 6.415c0 0.076 0.411 2.499 0.93 5.364s0.96 5.47 1.006 5.775c0.046 0.32 0.152 0.579 0.229 0.579s0.091 0.076 0.046 0.152c-0.061 0.091-0.015 0.67 0.091 1.31 0.091 0.625 0.229 1.082 0.274 0.99 0.091-0.122 0.091 0.32 0.030 1.402-0.015 0.076-0.091 0.076-0.168 0.030-0.168-0.107-4.16 0.549-4.038 0.655 0.046 0.046 1.082 0.076 2.316 0.061 1.615-0.015 2.27-0.076 2.362-0.213 0.061-0.107 0.107-3.749 0.076-8.091-0.030-6.811-0.061-7.909-0.259-8.030-0.32-0.213-2.895-0.198-2.895 0.015z"></path>
<path d="M21.638 12.968c0 4.83 0.046 6.080 0.198 5.989s0.152-0.061 0 0.107c-0.137 0.137-0.198 0.777-0.198 2.072v1.874l-2.514 0.030 0.99 0.213c1.63 0.335 1.798 0.305 1.966-0.366 0.091-0.305 0.29-1.387 0.457-2.392s0.716-4.16 1.234-7.010c0.503-2.85 0.899-5.379 0.884-5.638-0.046-0.411-0.122-0.472-0.808-0.625-0.411-0.091-1.082-0.213-1.478-0.259l-0.731-0.107v6.11z"></path>
<path d="M24.884 8.564c-0.015 0.107-0.122 0.762-0.274 1.463-0.137 0.701-0.198 1.402-0.137 1.585 0.046 0.168 0.030 0.274-0.046 0.229s-0.549 2.301-1.067 5.196c-0.503 2.91-0.869 5.303-0.792 5.333s0.030 0.198-0.091 0.381c-0.122 0.183-0.229 0.503-0.229 0.731 0 0.457 0.152 0.457-2.347-0.015-2.712-0.503-2.636-0.396 0.411 0.686 1.143 0.396 1.707 0.518 1.813 0.411 0.198-0.198 5.455-14.613 5.455-14.964 0-0.198-0.229-0.366-0.716-0.549-0.411-0.137-0.96-0.35-1.25-0.472-0.625-0.244-0.716-0.244-0.731-0.015z"></path>
<path d="M25.615 15.954c-1.128 3.093-2.072 5.699-2.118 5.821-0.061 0.152 0.015 0.183 0.29 0.107 0.35-0.091 0.35-0.091-0.030 0.122-0.35 0.198-0.899 1.189-0.899 1.6 0 0.076-0.137 0.442-0.305 0.823l-0.305 0.686-1.402-0.503c-0.777-0.274-1.722-0.61-2.103-0.747l-0.686-0.244 0.381 0.305c0.213 0.168 0.427 0.305 0.488 0.305 0.046 0 0.777 0.411 1.615 0.914 0.823 0.503 1.63 0.914 1.798 0.914 0.198 0 0.472-0.335 0.884-1.036 0.32-0.564 1.234-2.149 2.042-3.535 0.792-1.387 1.6-2.789 1.798-3.124 0.183-0.335 0.701-1.234 1.143-1.981 1.646-2.804 2.27-3.962 2.27-4.221 0-0.152-0.488-0.533-1.356-1.021-0.731-0.427-1.371-0.777-1.402-0.777-0.046 0-0.99 2.514-2.103 5.592z"></path>
</g></svg>