<svg xmlns="http://www.w3.org/2000/svg" class="icon icon-CardMarket" viewBox="0 0 30 32" width="30"  height="32" ><g fill="#e27e36" stroke-width="0px" id="icon-CardMarket">
<title>CardMarket</title>
<path d="M17.414 1.153c-0.93 0.521-0.819 1.042 0.335 2.27l1.005 1.042-3.646 3.684c-2.27 2.307-3.609 3.907-3.46 4.205 0.298 0.819 5.656 5.507 6.251 5.507 0.298 0 2.084-1.563 4.019-3.498l3.46-3.46 0.856 0.856c0.484 0.484 1.116 0.893 1.414 0.893 1.154 0 1.377-0.893 1.377-5.805 0-6.288 0.186-6.102-6.326-6.102-2.567 0-4.949 0.186-5.284 0.409z"></path>
<path d="M7.628 2.121c-1.526 0.335-2.791 0.967-2.791 1.377 0.037 0.223 0.447 2.233 0.93 4.502 0.484 2.233 1.265 6.065 1.749 8.447 0.558 2.865 1.005 4.391 1.302 4.391 0.372 0 0.484-2.084 0.484-9.488 0-7.367-0.112-9.488-0.447-9.451-0.26 0.037-0.819 0.112-1.228 0.223z"></path>
<path d="M2.605 6.326c-1.749 0.707-2.716 1.674-2.009 2.158 0.186 0.149 2.046 4.837 4.093 10.456 2.009 5.619 3.944 10.567 4.279 10.977 0.558 0.707 0.67 0.707 1.935 0.112 0.707-0.335 1.488-0.633 1.712-0.633s0.409-0.26 0.409-0.558c0-0.409-0.26-0.484-1.042-0.335-2.158 0.447-2.456-0.26-4.912-11.2-1.228-5.544-2.233-10.344-2.233-10.679 0-0.967-0.409-1.005-2.233-0.298z"></path>
<path d="M10.642 14.847c-0.484 0.521-0.595 1.6-0.595 6.102 0 6.921-0.335 6.586 6.809 6.586 6.698 0 7.926-0.633 5.47-2.865l-1.154-1.005 3.944-3.944c2.158-2.158 3.907-4.093 3.907-4.279 0-0.223-0.372-0.595-0.781-0.893-0.744-0.447-1.079-0.223-4.874 3.572-4.651 4.577-4.949 5.023-4.391 6.065 0.372 0.707 0.298 0.744-2.94 0.744h-3.349l-0.112-3.535-0.112-3.498 1.302 1.265c1.488 1.451 1.935 1.563 2.605 0.707 0.409-0.484 0.186-0.893-1.712-2.791-2.791-2.865-3.237-3.088-4.019-2.233z"></path>
</g></svg>