<svg xmlns="http://www.w3.org/2000/svg" class="icon icon-ebay" viewBox="0 0 32 32" width="32"  height="32" ><g fill="#e27e36" stroke-width="0px" id="icon-ebay">
<title>ebay</title>
<path fill="#e53238" style="fill: var(--color3, #e53238)" d="M8.075 16.173v-6.56h1.6v4.035c0.787-0.937 1.869-1.208 2.936-1.208 1.787 0 3.771 1.205 3.771 3.807 0 0.311-0.020 0.609-0.080 0.891 0.32-1.271 1.699-1.74 3.861-1.792 0.68-0.024 1.46-0.024 2.080-0.024v-0.18c0-1.18-0.741-1.659-2.040-1.659-0.96 0-1.66 0.4-1.74 1.080h-1.7c0.181-1.72 2-2.16 3.581-2.16 1.419 0 2.66 0.36 3.22 1.36l-0.581-1.12h1.88l2.74 5.5 2.74-5.501h1.657l-4.96 9.74h-1.795l1.427-2.72-3.107-5.84c0.173 0.34 0.267 0.74 0.267 1.24v3.28c0 0.461 0.013 0.92 0.053 1.34h-1.485c-0.040-0.34-0.061-0.68-0.061-1.020-0.804 0.979-1.76 1.28-3.093 1.28-1.973 0-3.029-1.040-3.029-2.26 0-0.2 0.020-0.379 0.049-0.54-0.4 1.661-1.813 2.781-3.689 2.781-1.16 0-2.259-0.42-2.933-1.24 0 0.32-0.020 0.659-0.053 0.979h-1.573c0.027-0.52 0.053-1.14 0.053-1.66v-1.4h-6.44c0.087 1.46 1.091 2.32 2.471 2.32 0.957 0 1.807-0.4 2.091-1.24h1.653c-0.32 1.72-2.147 2.3-3.72 2.3-2.857 0.028-4.124-1.555-4.124-3.675 0-2.339 1.309-3.88 4.155-3.88 2.251 0 3.907 1.181 3.92 3.741v0.007zM20.257 16.417c-1.46 0.045-2.36 0.311-2.36 1.267 0 0.62 0.48 1.293 1.74 1.293 1.68 0 2.58-0.92 2.58-2.419v-0.173c-0.6 0-1.32 0.008-1.979 0.029h0.016zM12.177 18.917c1.48 0 2.501-1.075 2.501-2.693s-1.024-2.693-2.524-2.693c-1.48 0-2.52 1.075-2.52 2.693s1.020 2.693 2.5 2.693h0.040zM6.377 15.565c-0.059-1.5-1.139-2.061-2.3-2.061-1.259 0-2.259 0.632-2.42 2.061h4.72z"></path>
</g></svg>