<svg xmlns="http://www.w3.org/2000/svg" class="icon icon-tcgplayer" viewBox="0 0 41 32" width="41"  height="32" ><g fill="#e27e36" stroke-width="0px" id="icon-tcgplayer">
<title>tcgplayer</title>
<path d="M0.716 1.433c-0.239 0.43-0.43 16.716-0.287 27.797l0.048 2.77h40.597l-0.096-15.379-0.143-15.427-19.916-0.143c-13.325-0.048-20.012 0.048-20.203 0.382zM35.582 2.866c-0.764 0.239-4.012 0.669-7.164 0.955-3.152 0.334-5.779 0.621-5.875 0.716s1.815 1.194 4.155 2.436c2.388 1.29 4.346 2.436 4.346 2.627 0 0.143-2.866 1.337-6.4 2.579l-6.4 2.34 2.579 3.343c1.385 1.863 2.436 3.439 2.34 3.534-0.239 0.239-11.224-7.642-11.224-8.024 0-0.191 1.194-1.146 2.627-2.149 1.433-0.955 2.627-1.91 2.627-2.101s-3.057-1.576-6.782-3.104c-3.773-1.528-7.021-3.009-7.26-3.2-0.287-0.239 6.973-0.43 16.716-0.382 9.839 0 16.525 0.191 15.713 0.43z"></path>
</g></svg>